<svg id="Layer_1" data-name="Layer 1" xmlns="http://www.w3.org/2000/svg" viewBox="0 0 322 295"><defs><style>.cls-1{fill:#fff;}.cls-2{fill:#a93339;}.cls-3,.cls-4{fill:#223847;}.cls-4{font-size:169px;font-family:Tahoma-Bold, Tahoma;font-weight:700;letter-spacing:0.09em;}</style></defs><title>logo4</title><rect class="cls-1" y="2" width="322" height="293"/><rect class="cls-1" width="322" height="293"/><path class="cls-2" d="M186.38,29" transform="translate(0 2)"/><path class="cls-2" d="M228.48,45" transform="translate(0 2)"/><path class="cls-2" d="M223.21,277" transform="translate(0 2)"/><polygon class="cls-3" points="295 275.95 295 205.45 272 205.45 272 254.99 135 254.99 135 275.95 295 275.95"/><polygon class="cls-2" points="295 108 295 34 27 34 27 276 122 276 122 255 51 255 51 56 272 56 272 108 295 108"/><circle class="cls-2" cx="141" cy="45" r="33"/><circle class="cls-2" cx="210" cy="266" r="18"/><text class="cls-4" transform="translate(105.12 220.44) scale(0.88 1)">N</text><rect class="cls-3" x="272" y="118" width="23" height="36.42"/><rect class="cls-2" x="272" y="160.75" width="23" height="33.25"/></svg>